<svg width="589" height="34" viewBox="0 0 589 34" fill="none" xmlns="http://www.w3.org/2000/svg">
<g clip-path="url(#clip0_10_1533)">
<rect width="589" height="34" fill="#E0C600"/>
<rect width="11" height="226.287" transform="translate(61.0089 -50) rotate(45)" fill="black"/>
<rect width="11" height="226.287" transform="translate(91.7959 -50) rotate(45)" fill="black"/>
<rect width="11" height="226.287" transform="translate(122.583 -50) rotate(45)" fill="black"/>
<rect width="11" height="226.287" transform="translate(153.37 -50) rotate(45)" fill="black"/>
<rect width="11" height="226.287" transform="translate(184.157 -50) rotate(45)" fill="black"/>
<rect width="11" height="226.287" transform="translate(214.944 -50) rotate(45)" fill="black"/>
<rect width="11" height="226.287" transform="translate(245.731 -50) rotate(45)" fill="black"/>
<rect width="11" height="226.287" transform="translate(276.518 -50) rotate(45)" fill="black"/>
<rect width="11" height="226.287" transform="translate(307.305 -50) rotate(45)" fill="black"/>
<rect width="11" height="226.287" transform="translate(338.092 -50) rotate(45)" fill="black"/>
<rect width="11" height="226.287" transform="translate(368.88 -50) rotate(45)" fill="black"/>
<rect width="11" height="226.287" transform="translate(399.667 -50) rotate(45)" fill="black"/>
<rect width="11" height="226.287" transform="translate(430.454 -50) rotate(45)" fill="black"/>
<rect width="11" height="226.287" transform="translate(461.241 -50) rotate(45)" fill="black"/>
<rect width="11" height="226.287" transform="translate(492.028 -50) rotate(45)" fill="black"/>
<rect width="11" height="226.287" transform="translate(522.815 -50) rotate(45)" fill="black"/>
<rect width="11" height="226.287" transform="translate(553.602 -50) rotate(45)" fill="black"/>
<rect width="11" height="226.287" transform="translate(584.389 -50) rotate(45)" fill="black"/>
<rect width="11" height="226.287" transform="translate(615.176 -50) rotate(45)" fill="black"/>
<rect width="11" height="226.287" transform="translate(645.963 -50) rotate(45)" fill="black"/>
</g>
<defs>
<clipPath id="clip0_10_1533">
<rect width="589" height="34" fill="white"/>
</clipPath>
</defs>
</svg>
